<?xml version="1.0" encoding="utf-8"?>
<!-- Generator: Adobe Illustrator 21.1.0, SVG Export Plug-In . SVG Version: 6.00 Build 0)  -->
<svg version="1.1" id="Layer_1" xmlns="http://www.w3.org/2000/svg" xmlns:xlink="http://www.w3.org/1999/xlink" x="0px" y="0px"
	 viewBox="0 0 130 132" style="enable-background:new 0 0 130 132;" xml:space="preserve">
<style type="text/css">
	.st0{fill:#FEFEFE;}
	.st1{filter:url(#Adobe_OpacityMaskFilter);}
	.st2{fill:#FFFFFF;}
	.st3{mask:url(#b);fill:#FEFEFE;}
</style>
<g>
	<path class="st0" d="M64.8,62.5c-1,0-2,0.1-3,0.4v15.7c1,0.3,2,0.4,3,0.4c2.3,0,4.6-0.6,6.1-2.1c1.5-1.5,2.1-3.8,2.1-6.2
		c0-2.3-0.6-4.7-2.1-6.2C69.4,63,67.1,62.5,64.8,62.5"/>
	<g transform="translate(22.96 23.467)">
		<defs>
			<filter id="Adobe_OpacityMaskFilter" filterUnits="userSpaceOnUse" x="-23" y="-23.5" width="129.8" height="132">
				<feColorMatrix  type="matrix" values="1 0 0 0 0  0 1 0 0 0  0 0 1 0 0  0 0 0 1 0"/>
			</filter>
		</defs>
		<mask maskUnits="userSpaceOnUse" x="-23" y="-23.5" width="129.8" height="132" id="b">
			<g class="st1">
				<path id="a" class="st2" d="M-23,108.5v-132h129.8v132H-23z"/>
			</g>
		</mask>
		<path class="st3" d="M60.3,64c-4,4.1-10.2,5.7-16.4,5.8H24.1V13.3h14.7v11.9c1.7-0.3,3.3-0.4,5-0.4c6.2,0,12.4,1.6,16.4,5.8
			c4.1,4.1,5.6,10.4,5.7,16.7C65.9,53.6,64.3,59.9,60.3,64 M90.2-6.6C78.5-18.7,60.2-23.3,42-23.5C23.7-23.3,5.4-18.7-6.3-6.6
			C-18.3,5.4-22.8,23.9-23,42.5c0.1,18.6,4.7,37.2,16.6,49.1c11.7,12.2,30,16.8,48.3,16.9c18.3-0.1,36.6-4.7,48.3-16.9
			c12-11.9,16.5-30.5,16.6-49.1C106.7,23.9,102.2,5.4,90.2-6.6"/>
	</g>
</g>
</svg>