<?xml version="1.0" encoding="utf-8"?>
<!-- Generator: Adobe Illustrator 22.1.0, SVG Export Plug-In . SVG Version: 6.00 Build 0)  -->
<svg version="1.1" id="Layer_1" xmlns="http://www.w3.org/2000/svg" xmlns:xlink="http://www.w3.org/1999/xlink" x="0px" y="0px"
	 viewBox="0 0 804 316" style="enable-background:new 0 0 804 316;" xml:space="preserve">
<style type="text/css">
	.st0{fill:#EF404F;}
	.st1{fill:#FCFCFC;}
	.st2{fill:none;}
	.st3{fill:#F9F9F9;}
	.st4{opacity:0.48;fill:#F9F9F9;}
	.st5{opacity:0.68;fill:#F9F9F9;}
	.st6{opacity:0.84;fill:#F9F9F9;}
	.st7{fill:#FFFFFF;}
	.st8{opacity:0.4;}
	.st9{opacity:0.34;}
</style>
<g>
	<path class="st0" d="M422.1,166.1c-1.8,0-3.3,0-5.1,0.7v26.3c1.8,0.4,3.3,0.7,5.1,0.7c4,0,7.7-1.1,10.2-3.7
		c2.6-2.6,3.7-6.2,3.7-10.6c0-4-1.1-8-3.7-10.6C429.8,166.8,425.7,166.1,422.1,166.1"/>
	<g transform="translate(22.96 23.467)">
		<path class="st0" d="M480.5,65.7c-19.7-20.5-50.5-28.2-81.2-28.5c-30.7,0.4-61.4,8-81.2,28.5c-20.1,20.1-27.8,51.2-28.2,82.6
			c0,31.4,8,62.5,27.8,82.6c19.7,20.5,50.5,28.2,81.2,28.5c30.7,0,61.4-8,81.2-28.5c20.1-20.1,27.8-51.2,27.8-82.6
			C508.3,116.9,500.6,85.8,480.5,65.7"/>
	</g>
</g>
<g>
	<g transform="translate(-123.000000, -386.000000)">
		<g transform="translate(123.000000, 386.000000)">
			<path class="st1" d="M698.9,216.9c-0.8,0-1.6-0.3-2.2-1L679,197.7c-0.6-0.6-1-1.5-1-2.5c0-0.9,0.4-1.8,1-2.5l17.7-18.2
				c1.3-1.3,3.3-1.3,4.5,0.1c1.2,1.4,1.2,3.5-0.1,4.8l-15.3,15.7l15.3,15.8c1.3,1.3,1.3,3.5,0.1,4.8
				C700.5,216.6,699.7,216.9,698.9,216.9"/>
		</g>
	</g>
</g>
<g>
	<g transform="translate(-123.000000, -386.000000)">
		<g transform="translate(123.000000, 386.000000)">
			<path class="st1" d="M729.2,173.6c0.8,0,1.6,0.3,2.2,1l17.7,18.3c0.6,0.6,1,1.5,1,2.5c0,0.9-0.4,1.8-1,2.5L731.4,216
				c-1.3,1.3-3.3,1.3-4.5-0.1c-1.2-1.4-1.2-3.5,0.1-4.8l15.3-15.7L727,179.5c-1.3-1.3-1.3-3.5-0.1-4.8
				C727.5,173.9,728.4,173.6,729.2,173.6"/>
		</g>
	</g>
</g>
<path class="st2" d="M330.9,86h163v163h-163V86z"/>
<path class="st3" d="M183.7,93.3H150c-4.6,0-8.4,3.8-8.4,8.4l0,67.4c0,4.6,3.7,8.4,8.4,8.4h50.6c4.6,0,8.4-3.8,8.4-8.4v-50.5
	L183.7,93.3z M192.1,160.7h-33.7v-8.4h33.7V160.7z M192.1,143.8h-33.7v-8.4h33.7V143.8z M179.4,122.8V99.6l23.2,23.2H179.4z"/>
<path class="st3" d="M624.6,110.3h-34c-4.7,0-8.5,3.8-8.5,8.5l0,67.9c0,4.7,3.8,8.5,8.5,8.5h51c4.7,0,8.5-3.8,8.5-8.5v-51
	L624.6,110.3z M633.1,178.3h-34v-8.5h34V178.3z M633.1,161.3h-34v-8.5h34V161.3z M620.3,140v-23.4l23.4,23.4H620.3z"/>
<path class="st3" d="M298.2,23h-22.3c-3.1,0-5.5,2.5-5.5,5.6l0,44.6c0,3.1,2.5,5.6,5.5,5.6h33.5c3.1,0,5.6-2.5,5.6-5.6V39.7
	L298.2,23z M303.7,67.6h-22.3V62h22.3V67.6z M303.7,56.4h-22.3v-5.6h22.3V56.4z M295.4,42.5V27.2l15.3,15.3H295.4z"/>
<path class="st4" d="M630.5,221.1h-22.3c-3.1,0-5.5,2.5-5.5,5.6l0,44.6c0,3.1,2.5,5.6,5.5,5.6h33.5c3.1,0,5.6-2.5,5.6-5.6v-33.4
	L630.5,221.1z M636.1,265.7h-22.3v-5.6h22.3V265.7z M636.1,254.6h-22.3V249h22.3V254.6z M627.7,240.6v-15.3l15.3,15.3H627.7z"/>
<path class="st4" d="M220.1,237.2h-12.5c-1.7,0-3.1,1.4-3.1,3.1l0,25.1c0,1.7,1.4,3.1,3.1,3.1h18.8c1.7,0,3.1-1.4,3.1-3.1v-18.8
	L220.1,237.2z M223.2,262.2h-12.5v-3.1h12.5V262.2z M223.2,256h-12.5v-3.1h12.5V256z M218.5,248.1v-8.6l8.6,8.6H218.5z"/>
<path class="st5" d="M278.4,119.7h-18.9c-2.6,0-4.7,2.1-4.7,4.7l0,37.8c0,2.6,2.1,4.7,4.7,4.7h28.4c2.6,0,4.7-2.1,4.7-4.7v-28.4
	L278.4,119.7z M283.1,157.5h-18.9v-4.7h18.9V157.5z M283.1,148.1h-18.9v-4.7h18.9V148.1z M276,136.3v-13l13,13H276z"/>
<path class="st6" d="M597.7,30.8h-21.4c-2.9,0-5.3,2.4-5.3,5.3l0,42.8c0,2.9,2.4,5.3,5.3,5.3h32.1c2.9,0,5.4-2.4,5.4-5.3V46.8
	L597.7,30.8z M603.1,73.6h-21.4v-5.3h21.4V73.6z M603.1,62.9h-21.4v-5.3h21.4V62.9z M595.1,49.5V34.8l14.7,14.7H595.1z"/>
<path class="st4" d="M127.8,40.8h-12.5c-1.7,0-3.1,1.4-3.1,3.1l0,25.1c0,1.7,1.4,3.1,3.1,3.1h18.8c1.7,0,3.1-1.4,3.1-3.1V50.2
	L127.8,40.8z M131,65.8h-12.5v-3.1H131V65.8z M131,59.6h-12.5v-3.1H131V59.6z M126.3,51.7v-8.6l8.6,8.6H126.3z"/>
<path class="st4" d="M530.2,33.8h-12.5c-1.7,0-3.1,1.4-3.1,3.1l0,25.1c0,1.7,1.4,3.1,3.1,3.1h18.8c1.7,0,3.1-1.4,3.1-3.1V43.2
	L530.2,33.8z M533.4,58.9h-12.5v-3.1h12.5V58.9z M533.4,52.6h-12.5v-3.1h12.5V52.6z M528.7,44.8v-8.6l8.6,8.6H528.7z"/>
<path class="st5" d="M716.4,81.6h-18.9c-2.6,0-4.7,2.1-4.7,4.7l0,37.8c0,2.6,2.1,4.7,4.7,4.7h28.4c2.6,0,4.7-2.1,4.7-4.7V95.8
	L716.4,81.6z M721.1,119.4h-18.9v-4.7h18.9V119.4z M721.1,110h-18.9v-4.7h18.9V110z M714,98.2v-13l13,13H714z"/>
<path class="st5" d="M95.2,209.3H76.3c-2.6,0-4.7,2.1-4.7,4.7l0,37.8c0,2.6,2.1,4.7,4.7,4.7h28.4c2.6,0,4.7-2.1,4.7-4.7v-28.4
	L95.2,209.3z M100,247.2H81.1v-4.7H100V247.2z M100,237.7H81.1V233H100V237.7z M92.9,225.9v-13l13,13H92.9z"/>
<g>
	<path class="st7" d="M387,188.6c0-3.3-0.7-5.5-2.2-6.8c-1.5-1.2-3.5-1.8-6.3-1.8v-7.6c2.7,0,4.8-0.7,6.3-2c1.5-1.3,2.2-3.4,2.2-6.3
		v-22.7c0-3.1,0.8-5.7,2.5-7.7c1.7-2,4.2-3,7.7-3h9.7v7.6h-5.4c-3.7,0-5.5,2-5.5,6.1v21.9c0,2.9-0.8,5-2.3,6.5
		c-1.5,1.5-3.3,2.4-5.2,2.7v0.8c1.9,0.3,3.6,1.2,5.2,2.9c1.6,1.7,2.3,3.9,2.3,6.6v21.7c0,2,0.4,3.5,1.3,4.5c0.9,1,2.3,1.5,4.3,1.5
		h5.3v7.6h-9.7c-3.2,0-5.7-0.9-7.5-2.7c-1.8-1.8-2.7-4.4-2.7-7.8V188.6z"/>
	<path class="st7" d="M463.9,163.6c0,3.3,0.7,5.6,2.2,6.8c1.5,1.2,3.6,1.8,6.3,1.8v7.6c-2.7,0-4.8,0.7-6.3,2
		c-1.5,1.3-2.2,3.4-2.2,6.2v22.5c0,3.1-0.9,5.6-2.6,7.6c-1.7,2-4.3,3-7.8,3H444v-7.6h5.3c3.7,0,5.5-2,5.5-6v-21.8
		c0-2.9,0.8-5,2.3-6.5c1.5-1.5,3.2-2.4,5.1-2.7v-0.8c-1.9-0.3-3.6-1.2-5.1-2.9c-1.5-1.7-2.3-3.9-2.3-6.7v-21.9
		c0-4.1-1.9-6.1-5.6-6.1H444v-7.6h9.5c3.2,0,5.7,0.9,7.5,2.7c1.8,1.8,2.8,4.4,2.8,7.9V163.6z"/>
</g>
<g class="st8">
	<g transform="translate(-123.000000, -386.000000)">
		<g transform="translate(123.000000, 386.000000)">
			<path class="st1" d="M77.9,148.3c-0.5,0-1-0.2-1.4-0.6l-10.9-11.2c-0.4-0.4-0.6-0.9-0.6-1.5c0-0.6,0.2-1.1,0.6-1.5l10.9-11.2
				c0.8-0.8,2-0.8,2.8,0.1c0.7,0.8,0.7,2.2-0.1,3l-9.4,9.7l9.4,9.7c0.8,0.8,0.8,2.1,0.1,3C79,148.1,78.4,148.3,77.9,148.3"/>
		</g>
	</g>
</g>
<g class="st8">
	<g transform="translate(-123.000000, -386.000000)">
		<g transform="translate(123.000000, 386.000000)">
			<path class="st1" d="M96.6,121.7c0.5,0,1,0.2,1.4,0.6l10.9,11.2c0.4,0.4,0.6,0.9,0.6,1.5c0,0.6-0.2,1.1-0.6,1.5l-10.9,11.2
				c-0.8,0.8-2,0.8-2.8-0.1c-0.7-0.8-0.7-2.2,0.1-3l9.4-9.7l-9.4-9.7c-0.8-0.8-0.8-2.1-0.1-3C95.6,121.9,96.1,121.7,96.6,121.7"/>
		</g>
	</g>
</g>
<g class="st8">
	<g transform="translate(-123.000000, -386.000000)">
		<g transform="translate(123.000000, 386.000000)">
			<path class="st1" d="M716.7,49.5c-0.5,0-1-0.2-1.4-0.6l-10.9-11.2c-0.4-0.4-0.6-0.9-0.6-1.5c0-0.6,0.2-1.1,0.6-1.5l10.9-11.2
				c0.8-0.8,2-0.8,2.8,0.1c0.7,0.8,0.7,2.2-0.1,3l-9.4,9.7l9.4,9.7c0.8,0.8,0.8,2.1,0.1,3C717.7,49.3,717.2,49.5,716.7,49.5"/>
		</g>
	</g>
</g>
<g class="st8">
	<g transform="translate(-123.000000, -386.000000)">
		<g transform="translate(123.000000, 386.000000)">
			<path class="st1" d="M735.4,22.9c0.5,0,1,0.2,1.4,0.6l10.9,11.2c0.4,0.4,0.6,0.9,0.6,1.5c0,0.6-0.2,1.1-0.6,1.5l-10.9,11.2
				c-0.8,0.8-2,0.8-2.8-0.1c-0.7-0.8-0.7-2.2,0.1-3l9.4-9.7l-9.4-9.7c-0.8-0.8-0.8-2.1-0.1-3C734.3,23.1,734.8,22.9,735.4,22.9"/>
		</g>
	</g>
</g>
<g class="st9">
	<path class="st7" d="M287.2,268c0-1-0.2-1.6-0.6-2c-0.4-0.4-1-0.5-1.9-0.5v-2.2c0.8,0,1.4-0.2,1.9-0.6c0.4-0.4,0.6-1,0.6-1.9v-6.7
		c0-0.9,0.2-1.7,0.7-2.3c0.5-0.6,1.3-0.9,2.3-0.9h2.9v2.2h-1.6c-1.1,0-1.6,0.6-1.6,1.8v6.5c0,0.9-0.2,1.5-0.7,1.9
		c-0.5,0.4-1,0.7-1.5,0.8v0.2c0.6,0.1,1.1,0.4,1.5,0.9c0.5,0.5,0.7,1.2,0.7,2v6.4c0,0.6,0.1,1,0.4,1.3c0.3,0.3,0.7,0.4,1.3,0.4h1.6
		v2.2h-2.9c-0.9,0-1.7-0.3-2.2-0.8c-0.5-0.5-0.8-1.3-0.8-2.3V268z"/>
	<path class="st7" d="M309.9,260.7c0,1,0.2,1.6,0.7,2c0.4,0.4,1.1,0.5,1.9,0.5v2.2c-0.8,0-1.4,0.2-1.9,0.6c-0.4,0.4-0.7,1-0.7,1.8
		v6.7c0,0.9-0.3,1.7-0.8,2.3c-0.5,0.6-1.3,0.9-2.3,0.9h-2.8v-2.2h1.6c1.1,0,1.6-0.6,1.6-1.8v-6.5c0-0.8,0.2-1.5,0.7-1.9
		c0.5-0.4,1-0.7,1.5-0.8v-0.2c-0.6-0.1-1.1-0.4-1.5-0.9c-0.5-0.5-0.7-1.2-0.7-2V255c0-1.2-0.6-1.8-1.7-1.8h-1.6v-2.2h2.8
		c0.9,0,1.7,0.3,2.2,0.8c0.5,0.5,0.8,1.3,0.8,2.3V260.7z"/>
</g>
</svg>
